# xmcd CD database file
#
# Track frame offsets:
#	187
#	20862
#	42185
#	62827
#
# Disc length: 1117 seconds
#
# Revision: 0
# Processed by: cddbd v1.5.1PL0 Copyright (c) Steve Scherf et al.
# Submitted via: CDex 1.50
#
DISCID=32045b04
DTITLE=涼風真世 - 涙は知っている
DYEAR=1996
DGENRE=JPop
TTITLE0=涙は知っている
TTITLE1=あなたの帰る場所
TTITLE2=涙は知っている（オリジナル・カラオケ）
TTITLE3=あなたの帰る場所（オリジナル・カラオケ）
EXTD=YEAR: 1996
EXTT0=
EXTT1=
EXTT2=
EXTT3=
PLAYORDER=
